# xmcd
#
# Track frame offsets: 
#        150
#        1687
#        29392
#        51030
#        96967
#        116152
#        142740
#        161250
#        193837
#        225937
#        242947
#        266340
#        284572
#
# Disc length: 4437 seconds
#
# Revision: 0
# Processed by: cddbd v1.4PL0 Copyright (c) Steve Scherf et al.
# Submitted via: ExactAudioCopy v0.90b4
#
DISCID=a511530d
DTITLE=Smokin' Gun - Live Round From Seattle
DYEAR=2000
DGENRE=Blues
TTITLE0=Introduction
TTITLE1=Don't Go
TTITLE2=Don't Touch My Girl
TTITLE3=Fool For Your Stockings
TTITLE4=I Need You Baby
TTITLE5=Bad Luck Blues
TTITLE6=Too Tired
TTITLE7=Nothin' Good To Say
TTITLE8=One Way Out
TTITLE9=La Grange
TTITLE10=Boom Boom
TTITLE11=Cold Sweat
TTITLE12=Forecast Calls For Pain
EXTD=
EXTT0=
EXTT1=
EXTT2=
EXTT3=
EXTT4=
EXTT5=
EXTT6=
EXTT7=
EXTT8=
EXTT9=
EXTT10=
EXTT11=
EXTT12=
PLAYORDER=
